<svg xmlns="http://www.w3.org/2000/svg" xmlns:xlink="http://www.w3.org/1999/xlink" fill="none" version="1.1" width="50" height="16.346153259277344" viewBox="0 0 50 16.346153259277344"><defs><clipPath id="master_svg0_4987_88854"><rect x="0" y="0" width="50" height="16.346153259277344" rx="0"/></clipPath></defs><g clip-path="url(#master_svg0_4987_88854)"><g><g><g transform="matrix(-0.2581223249435425,0.9661122560501099,-0.9654613137245178,-0.26054662466049194,36.57306731918652,-6.4010198865580605)"></g><g><path d="M37.6590990625,0.75156113390625L35.9539250625,0.75156113390625C35.6631350625,0.75156113390625,35.4198220625,0.98416875390625,35.3941050625,1.27443175390625L35.1962890625,3.55876275390625L36.9449790625,3.55876275390625C37.2357690625,3.55876275390625,37.4296290625,3.33410275390625,37.4553490625,3.04185275390625L37.4691990625,2.88877275390625L38.0962790625,2.88877275390625C38.387069062500004,2.88877275390625,38.6303790625,2.6641127539062497,38.6541190625,2.37186275390625L38.8004990625,0.74957275390625L37.6610790625,0.74957275390625L37.6590990625,0.75156113390625Z" fill="#FFFFFF" fill-opacity="1"/></g><g><path d="M40.5882134375,2.89062796875L39.4052734375,2.89062796875L39.5655044375,1.01783496875C39.5773724375,0.86872796875,39.7000174375,0.75341796875,39.8444254375,0.75341796875L41.8146734375,0.75341796875L41.7039034375,1.83096796875C41.6544434375,2.4313779687499997,41.1697934375,2.89062796875,40.5862434375,2.89062796875L40.5882134375,2.89062796875Z" fill="#FFFFFF" fill-opacity="1"/></g><g><path d="M40.724295,13.44745240234375L41.477975,4.71771240234375L39.762905,4.71771240234375C39.472115,4.71771240234375,39.23078,4.94037940234375,39.205063,5.23263040234375L38.46127478,13.86893240234375C38.350498,15.18501240234375,39.383099,16.314312402343752,40.696595,16.314312402343752L48.409455,16.314312402343752C48.993025,16.314312402343752,49.477625,15.86501240234375,49.527125,15.28251240234375L49.630025,14.05979240234375L41.284115,14.05979240234375C40.955735,14.05979240234375,40.698575,13.77748240234375,40.726265,13.44944240234375L40.724295,13.44745240234375Z" fill="#FFFFFF" fill-opacity="1"/></g><g><path d="M48.80221296875,3.65620962890625C49.38577296875,3.65620962890625,49.87042296875,3.20689962890625,49.91987296875,2.62438962890625L49.99900296875,1.6760626289062501L44.80632296875,1.66413362890625L44.88743296875,0.74761962890625L43.21192296875,0.74761962890625C42.92113296875,0.74761962890625,42.67782396875,0.97028662890625,42.65408396875,1.26253762890625L42.15558696875,6.91867962890625C42.10019796875,7.57673962890625,42.61649896875,8.141359628906251,43.27324296875,8.141359628906251L45.31866296875,8.147329628906249L45.16832296875,9.97637962890625L42.92707296875,9.97040962890625C42.34351096875,9.97040962890625,41.85886196875,10.41971962890625,41.80940796875,11.00221962890625L41.70654296875,12.22491962890625L44.98238296875,12.23291962890625L44.81028296875,14.31241962890625L47.05351296875,14.31241962890625L47.223632968749996,12.23881962890625L48.09205296875,12.23881962890625C48.67560296875,12.24081962890625,49.16025296875,11.79351962890625,49.20971296875,11.20901962890625L49.31257296875,9.98631962890625L47.40958296875,9.98233962890625L47.55992296875,8.15527962890625L48.42042296875,8.15527962890625C49.00398296875,8.15726962890625,49.48863296875,7.70994962890625,49.538082968750004,7.12543962890625L49.64095296875,5.90275962890625L47.74389296875,5.90275962890625L47.840822968750004,4.71983962890625L46.11784296875,4.71983962890625C45.82705296875,4.71983962890625,45.58374296875,4.94250962890625,45.56000296875,5.23475962890625L45.50461296875,5.90275962890625L44.73708296875,5.90275962890625C44.57289296875,5.90275962890625,44.44432296875,5.76160962890625,44.45816296875,5.59659962890625L44.63026296875,3.65620962890625L48.80418296875,3.65620962890625L48.80221296875,3.65620962890625Z" fill="#FFFFFF" fill-opacity="1"/></g><g><path d="M37.73697609375,15.49121240234375Q37.36706609375,14.70592240234375,37.52729609375,14.10949240234375L36.47293609375,14.10949240234375L36.63909609375,12.23074240234375L37.30375609375,12.23074240234375C37.59454609375,12.23074240234375,37.83786609375,12.00608240234375,37.86160609375,11.713832402343751L38.00798609375,9.97623240234375L36.83691609375,9.97623240234375L37.10198609375,6.97221240234375L37.76665609375,6.97221240234375C38.05744609375,6.97221240234375,38.300756093749996,6.74756240234375,38.32449609375,6.4553124023437505L38.47087609375,4.71771240234375L35.63023609375,4.71771240234375C35.33944609375,4.71771240234375,35.09613609375,4.94236740234375,35.07239609375,5.23461840234375L34.33256209375,13.59457240234375C34.30882609375,13.88682240234375,34.06550909375,14.11148240234375,33.77471909375,14.11148240234375L33.57690339375,14.11148240234375L33.49382098375,15.08961240234375C33.43843269375,15.74771240234375,33.95473309375,16.31231240234375,34.61147609375,16.31231240234375L38.50252609375,16.31231240234375Q38.000076093749996,16.05191240234375,37.73697609375,15.49321240234375L37.73697609375,15.49121240234375Z" fill="#FFFFFF" fill-opacity="1"/></g><g><path d="M14.7512,8.175123779296875C15.3347,8.175123779296875,15.8194,7.725813779296875,15.8688,7.143303779296875L15.9717,5.920623779296875L2.64876,5.920623779296875C2.0652,5.920623779296875,1.58055,6.369933779296875,1.5311,6.952443779296875L1.42823,8.175123779296875L7.38448,8.175123779296875L7.23216,9.978333779296875L2.02366,9.978333779296875C1.4401,9.978333779296875,0.955452,10.427643779296876,0.905998,11.010153779296875L0.803133,12.232833779296875L7.04226,12.232833779296875L6.88598,14.093703779296876L1.22053,14.093703779296876C0.636968,14.093703779296876,0.152318,14.543013779296874,0.102864,15.125523779296875L0,16.348223779296873L14.5514,16.348223779296873C15.1349,16.348223779296873,15.6196,15.898893779296875,15.669,15.316373779296875L15.7719,14.093703779296876L9.34088,14.093703779296876L9.49715,12.232833779296875L14.4188,12.232833779296875C15.0024,12.232833779296875,15.487,11.783523779296875,15.5365,11.201013779296876L15.6393,9.978333779296875L9.68706,9.978333779296875L9.83937,8.175123779296875L14.7531,8.175123779296875L14.7512,8.175123779296875Z" fill="#FFFFFF" fill-opacity="1"/></g><g><path d="M15.7842734375,5.189034345703125L14.4430734375,5.189034345703125C14.3223734375,5.189034345703125,14.2155734375,5.119444345703125,14.1779734375,5.014084345703125C13.8614734375,4.143294345703125,12.9000734375,2.908684345703125,10.4234134375,2.862954345703125C6.7262334375,2.795364345703125,5.0447934375,4.590614345703125,4.6194934375,5.089624345703125C4.5660834375,5.151254345703125,4.4849734375,5.187044345703125,4.3979434375,5.187044345703125L1.2506814375,5.187044345703125C1.0311059375,5.187044345703125,0.8946129375,4.970344345703125,1.0093462375,4.801354345703125C2.5898934375,2.499134345703125,6.0101334375,0.501093345703125,10.5480434375,0.741653445703125C14.0018734375,0.926546345703125,15.4657734375,2.7039043457031253,16.057173437499998,4.872924345703125C16.1007734375,5.033964345703125,15.9681734375,5.189034345703125,15.7842734375,5.189034345703125Z" fill="#FFFFFF" fill-opacity="1"/></g><g><path d="M18.0672559375,16.302508642578125C17.3175259375,16.302508642578125,16.3363629375,16.298528642578127,16.2255859375,16.302508642578125Q16.5104419375,16.093758642578123,16.5559389375,15.668308642578126Q16.6192399375,15.067898642578125,16.6845199375,14.105658642578124C16.8368369375,14.105658642578124,19.0879859375,14.254768642578124,19.6715459375,13.829312642578126C20.106735937499998,13.513205642578125,20.0612459375,12.992322692578124,20.0632159375,12.986358642578125L22.4924059375,12.986358642578125C22.4785559375,13.149382642578125,22.3242559375,14.791548642578125,21.0443859375,15.712038642578126C20.1403659375,16.362148642578124,18.9791859375,16.300518642578126,18.0672559375,16.300518642578126L18.0672559375,16.302508642578125Z" fill="#FFFFFF" fill-opacity="1"/></g><g><path d="M31.075509843749998,16.308468642578124C31.51860984375,16.308468642578124,32.41867984375,16.308468642578124,32.61846984375,16.310458642578126Q32.76287984375,16.310458642578126,32.88749984375,16.310458642578126Q32.47999984375,16.065918642578126,32.535389843749996,15.503288642578125Q32.60264984375,14.805468642578125,32.66198984375,14.113608642578125Q30.44446984375,14.238858642578125,29.87673984375,13.793526642578126C29.46132984375,13.467478642578126,29.47121984375,12.992322692578124,29.47121984375,12.986358642578125L27.11720572375,12.986358642578125C27.10335714375,13.147394642578124,27.02423184375,14.590758642578125,28.17551984375,15.505278642578125C28.98854984375,16.151408642578126,30.14774984375,16.306488642578124,31.07946984375,16.306488642578124L31.075509843749998,16.308468642578124Z" fill="#FFFFFF" fill-opacity="1"/></g><g><path d="M25.0634240625,4.24660487109375C25.3245440625,4.55674887109375,25.6806140625,4.86092287109375,26.0643740625,4.99612287109375C26.6479340625,5.14920287109375,27.3007240625,4.99214287109375,27.7418540625,4.57662987109375C27.8625240625,4.48120087109375,28.0385740625,4.50108187109375,28.1355140625,4.62235587109375C28.402564062499998,4.96232287109375,27.6152540625,5.57465287109375,27.354134062500002,5.73569287109375C26.2542840625,6.41959287109375,24.8517640625,6.12337287109375,23.8468580625,5.40169287109375C23.4512257625,5.13727287109375,23.3424260625,4.60247487109375,23.6055220625,4.20485487109375C23.9378530625,3.67403287109375,24.7647240625,3.70385387109375,25.0654040625,4.24660487109375L25.0634240625,4.24660487109375Z" fill="#FFFFFF" fill-opacity="1"/></g><g><path d="M30.72855859375,1.451704013671875C30.72465859375,1.829444013671875,30.65935859375,2.286704013671875,30.43185859375,2.696254013671875C30.24395859375,3.032244013671875,29.96305859375,3.274784013671875,29.68805859375,3.447754013671875C30.20835859375,3.970624013671875,30.46355859375,4.612774013671875,30.46355859375,5.310604013671875C30.46355859375,7.060124013671875,28.86915859375,8.477644013671876,25.454808593750002,8.477644013671876C22.04049859375,8.477644013671876,20.44807859375,7.060124013671875,20.44807859375,5.310604013671875C20.44807859375,3.561074013671875,21.90795859375,2.143554013671875,25.454808593750002,2.143554013671875C25.69020859375,2.143554013671875,25.91373859375,2.151514013671875,26.13133859375,2.165424013671875C26.09968859375,1.809554013671875,26.11946859375,1.378144013671875,26.28760859375,0.962628013671875C26.47355859375,0.5033770136718749,26.70697859375,0.234983013671875,26.89292859375,0.081899913671875C26.43597859375,0.032197413671875,25.957258593749998,0.004364013671875,25.45479859375,0.004364013671875C23.27882859375,0.004364013671875,21.53210859375,0.459639013671875,20.26410859375,1.360244013671875C18.92291359375,2.310564013671875,18.18505859375,3.714154013671875,18.18505859375,5.312594013671875C18.18505859375,6.911014013671875,18.92291359375,8.314624013671875,20.26014859375,9.264924013671875C21.52814859375,10.165564013671874,23.27486859375,10.620864013671875,25.45479859375,10.620864013671875C27.63473859375,10.620864013671875,29.29445859375,10.169564013671875,30.576258593749998,9.278844013671876C31.96095859375,8.316604013671874,32.724558593750004,6.909034013671875,32.724558593750004,5.312594013671875C32.724558593750004,3.716144013671875,32.01635859375,2.411954013671875,30.72655859375,1.455674013671875L30.72855859375,1.451704013671875Z" fill="#FFFFFF" fill-opacity="1"/></g><g><path d="M29.24310484375,2.24258C28.72482484375,2.93841,27.74365484375,3.29826,27.32823884375,3.42748C27.07899184375,3.50502,26.95238984375,3.76745,26.93854084375,4.04379L26.74270214375,4.03982Q26.58642884375,2.06961,27.51616384375,0.958264Q28.25401484375,0.0775359,29.77918484375,0Q29.96314484375,1.26841,29.23914484375,2.24258L29.24310484375,2.24258Z" fill="#FFFFFF" fill-opacity="1"/></g><g><path d="M30.43866796875,9.976444557109375C29.127067968749998,10.723969787109375,27.45556796875,11.103696787109374,25.45762796875,11.103696787109374C23.45968796875,11.103696787109374,21.71692796875,10.723969787109375,20.41331796875,9.976444557109375L18.56769796875,9.976444557109375C17.98413596875,9.976444557109375,17.49948596875,10.425754787109375,17.45003196875,11.008266787109374L17.34716796875,12.230946787109374L23.75245796875,12.230946787109374L23.46166796875,15.694216787109376C23.43396796875,16.022256787109374,23.69112796875,16.304566787109376,24.01950796875,16.304566787109376L25.13716796875,16.304566787109376C25.42795796875,16.304566787109376,25.67126796875,16.079906787109376,25.695007968749998,15.787656787109375L25.99569796875,12.228966787109375L31.53846796875,12.228966787109375C32.12206796875,12.228966787109375,32.60666796875,11.779646787109375,32.65616796875,11.197136787109375L32.75906796875,9.974456787109375L30.44066796875,9.974456787109375L30.43866796875,9.976444557109375Z" fill="#FFFFFF" fill-opacity="1"/></g></g></g></g></svg>