<svg xmlns="http://www.w3.org/2000/svg" xmlns:xlink="http://www.w3.org/1999/xlink" fill="none" version="1.1" width="100" height="100" viewBox="0 0 100 100"><defs><clipPath id="master_svg0_5318_23341"><rect x="0" y="0" width="100" height="100" rx="28"/></clipPath></defs><g clip-path="url(#master_svg0_5318_23341)"><rect x="0" y="0" width="100" height="100" rx="28" fill="#FC7B1F" fill-opacity="1"/><g><g transform="matrix(-0.2537335455417633,0.9672741293907166,-0.9642385244369507,-0.26503586769104004,103.32343896338034,76.08560804296121)"></g><g><path d="M48.2624169140625,44.723215103149414C49.8284369140625,46.52939510314941,51.9638369140625,48.300855103149416,54.2653369140625,49.088165103149414C57.7650369140625,49.979685103149414,61.679936914062495,49.06501510314941,64.3254369140625,46.645185103149416C65.0491369140625,46.08943510314941,66.1050369140625,46.20521510314941,66.68633691406251,46.911475103149414C68.2878369140625,48.891335103149416,63.5662369140625,52.457365103149414,62.0002369140625,53.39526510314941C55.4042369140625,57.37806510314941,46.9930369140625,55.65296510314941,40.9664169140625,51.45010510314941C38.5937372140625,49.91021510314941,37.9412449140625,46.79569510314941,39.5190829140625,44.480065103149414C41.5121369140625,41.38870910314942,46.4710469140625,41.56238110314941,48.2742869140625,44.72320510314941L48.2624169140625,44.723215103149414Z" fill="#FFFFFF" fill-opacity="1"/></g><g><path d="M81.541028515625,26.51710638671875C81.517328515625,28.89879638671875,81.126928515625,31.781996386718752,79.766328515625,34.36429638671875C78.642428515625,36.482796386718746,76.962428515625,38.01209638671875,75.317928515625,39.10269638671875C78.429528515625,42.39949638671875,79.955628515625,46.44849638671875,79.955628515625,50.84839638671875C79.955628515625,61.87959638671875,70.420028515625,70.81739638671874,50.000028515625,70.81739638671874C29.580028515625,70.81739638671874,20.056228515625,61.87959638671875,20.056228515625,50.84839638671875C20.056228515625,39.81719638671875,28.787328515625,30.87939638671875,50.000028515625,30.87939638671875C51.407928515625,30.87939638671875,52.744728515625,30.92959638671875,54.046128515625,31.017296386718748C53.856828515625,28.773496386718747,53.975128515625,26.05329638671875,54.980828515625,23.43338638671875C56.092828515625,20.53769638671875,57.488928515625,18.84540638671875,58.601028515625,17.88017938671875C55.868128515625,17.56679238671875,53.005028515625,17.39129638671875,50.000028515625,17.39129638671875C36.986128515625,17.39129638671875,26.539428515625,20.26191638671875,18.955928515625,25.94047638671875C10.934628515625,31.93239638671875,6.521728515625,40.78249638671875,6.521728515625,50.86099638671875C6.521728515625,60.93949638671875,10.934628515625,69.78949638671875,18.932228515625,75.78139638671874C26.515828515625,81.45999638671876,36.962428515625,84.33059638671875,50.000028515625,84.33059638671875C63.037528515625,84.33059638671875,72.963628515625,81.48509638671875,80.630028515625,75.86919638671876C88.911528515625,69.80199638671874,93.478228515625,60.92689638671875,93.478228515625,50.86099638671875C93.478228515625,40.79499638671875,89.242828515625,32.57169638671875,81.529128515625,26.54217638671875L81.541028515625,26.51710638671875Z" fill="#FFFFFF" fill-opacity="1"/></g><g><path d="M72.9645013671875,31.17969638671875C69.8002013671875,35.45809638671875,63.8098413671875,37.67059638671875,61.2735913671875,38.46509638671875C59.7518513671875,38.94179638671875,58.9789113671875,40.555396386718755,58.8943613671875,42.25449638671875L57.6986943671875,42.22999638671875Q56.7445923671875,30.11629638671875,62.4209413671875,23.28315638671875Q66.9257813671875,17.86802438671875,76.2374013671875,17.39129638671875Q77.3606013671875,25.19006638671875,72.9403013671875,31.17969638671875L72.9645013671875,31.17969638671875Z" fill="#FFFFFF" fill-opacity="1"/></g></g></g></svg>