<svg width="156" height="55" viewBox="0 0 156 55" xmlns="http://www.w3.org/2000/svg" xmlns:xlink="http://www.w3.org/1999/xlink"><defs><path id="a" d="M0 0h156v55H0z"/></defs><g fill="none" fill-rule="evenodd"><mask id="b" fill="#fff"><use xlink:href="#a"/></mask><use fill="#F0F2F5" xlink:href="#a"/><g stroke="#E6EEF8" mask="url(#b)"><path d="M154.352 42.837c0 8.399-3.998 15.864-10.19 20.607-.367.306-.744.59-1.157.838l-.012.01a9.74 9.74 0 0 1-5.107 1.428c-5.426 0-9.838-4.41-9.838-9.837 0-5.439 4.412-9.837 9.838-9.837 2.017 0 3.892.6 5.461 1.651.732.376 1.569.59 2.454.59a5.442 5.442 0 0 0 5.437-5.45 5.431 5.431 0 0 0-5.437-5.437H83.615a7.331 7.331 0 0 0-5.862 2.901A7.34 7.34 0 0 0 71.89 37.4h-44.8C12.76 37.4 1.152 25.78 1.152 11.46c0-8.398 4-15.865 10.192-20.595.365-.305.744-.59 1.155-.848h.012a9.743 9.743 0 0 1 5.108-1.427c5.427 0 9.837 4.398 9.837 9.837 0 5.425-4.41 9.826-9.837 9.826a9.858 9.858 0 0 1-5.462-1.64V6.6a5.502 5.502 0 0 0-2.453-.577 5.437 5.437 0 0 0-5.437 5.437c0 3.008 2.429 5.45 5.437 5.45H71.89a7.35 7.35 0 0 0 5.863-2.913 7.342 7.342 0 0 0 5.862 2.914h44.812c14.319 0 25.925 11.605 25.925 25.926z"/><path d="M33.13 54.503c0-.86.695-1.557 1.557-1.557h3.515a3.491 3.491 0 0 0 3.491-3.492V37.4h20.489v12.055a3.5 3.5 0 0 0 3.491 3.492h3.529c.848 0 1.555.697 1.555 1.557"/><path d="M70.757-.193c0 .86-.707 1.557-1.555 1.557h-3.529a3.493 3.493 0 0 0-3.491 3.491V16.91H41.693V4.855a3.484 3.484 0 0 0-3.491-3.491h-3.515A1.555 1.555 0 0 1 33.13-.193M84.758 54.503c0-.86.684-1.557 1.547-1.557h3.525a3.499 3.499 0 0 0 3.493-3.492V37.4h20.488v12.055a3.492 3.492 0 0 0 3.491 3.492h3.516c.86 0 1.557.697 1.557 1.557M122.376-.193c0 .86-.697 1.557-1.558 1.557h-3.515a3.484 3.484 0 0 0-3.492 3.491V16.91H93.324V4.855a3.485 3.485 0 0 0-3.493-3.491h-3.526A1.546 1.546 0 0 1 84.76-.193M33.131 54.503h37.626M85.131 54.503h37.245" stroke-linecap="round" stroke-linejoin="round"/><g><path d="M154.352 97.837c0 8.399-3.998 15.864-10.19 20.607-.367.306-.744.59-1.157.838l-.012.01a9.74 9.74 0 0 1-5.107 1.428c-5.426 0-9.838-4.41-9.838-9.837 0-5.439 4.412-9.837 9.838-9.837 2.017 0 3.892.6 5.461 1.651.732.376 1.569.59 2.454.59a5.442 5.442 0 0 0 5.437-5.45 5.431 5.431 0 0 0-5.437-5.437H83.615a7.331 7.331 0 0 0-5.862 2.901A7.34 7.34 0 0 0 71.89 92.4h-44.8C12.76 92.4 1.152 80.78 1.152 66.46c0-8.398 4-15.865 10.192-20.595.365-.305.744-.59 1.155-.848h.012a9.743 9.743 0 0 1 5.108-1.427c5.427 0 9.837 4.398 9.837 9.837 0 5.425-4.41 9.826-9.837 9.826a9.858 9.858 0 0 1-5.462-1.64V61.6a5.502 5.502 0 0 0-2.453-.577 5.437 5.437 0 0 0-5.437 5.437c0 3.008 2.429 5.45 5.437 5.45H71.89a7.35 7.35 0 0 0 5.863-2.913 7.342 7.342 0 0 0 5.862 2.914h44.812c14.319 0 25.925 11.605 25.925 25.926z"/><path d="M70.757 54.807c0 .86-.707 1.557-1.555 1.557h-3.529a3.493 3.493 0 0 0-3.491 3.491V71.91H41.693V59.855a3.484 3.484 0 0 0-3.491-3.491h-3.515a1.555 1.555 0 0 1-1.556-1.557M122.376 54.807c0 .86-.697 1.557-1.558 1.557h-3.515a3.484 3.484 0 0 0-3.492 3.491V71.91H93.324V59.855a3.485 3.485 0 0 0-3.493-3.491h-3.526a1.546 1.546 0 0 1-1.546-1.557" stroke-linecap="round" stroke-linejoin="round"/><path d="M33.131 54.807h37.626"/><path stroke-linecap="round" stroke-linejoin="round" d="M85.131 54.807h37.245"/></g><path d="M154.352-12.163c0 8.399-3.998 15.864-10.19 20.607-.367.306-.744.59-1.157.838l-.012.01a9.74 9.74 0 0 1-5.107 1.428c-5.426 0-9.838-4.41-9.838-9.837 0-5.439 4.412-9.837 9.838-9.837 2.017 0 3.892.6 5.461 1.651.732.376 1.569.59 2.454.59a5.442 5.442 0 0 0 5.437-5.45 5.431 5.431 0 0 0-5.437-5.437H83.615a7.331 7.331 0 0 0-5.862 2.901A7.34 7.34 0 0 0 71.89-17.6h-44.8C12.76-17.6 1.152-29.22 1.152-43.54c0-8.398 4-15.865 10.192-20.595.365-.305.744-.59 1.155-.848h.012a9.743 9.743 0 0 1 5.108-1.427c5.427 0 9.837 4.398 9.837 9.837 0 5.425-4.41 9.826-9.837 9.826a9.858 9.858 0 0 1-5.462-1.64v-.013a5.502 5.502 0 0 0-2.453-.577 5.437 5.437 0 0 0-5.437 5.437c0 3.008 2.429 5.45 5.437 5.45H71.89a7.35 7.35 0 0 0 5.863-2.913 7.342 7.342 0 0 0 5.862 2.914h44.812c14.319 0 25.925 11.605 25.925 25.926z"/></g></g></svg>